<?xml version="1.0" encoding="utf-8"?>
<svg xmlns="http://www.w3.org/2000/svg" viewBox="0 0 499.481 499.696"
    class="looka-1j8o68f">
  <g transform="matrix(1, 0, 0, 1, 74.740487, 198.895389)">
    <g id="SvgjsG6291" featurekey="nameFeature-0" transform="matrix(1.332968, 0, 0, 1.332968, -1.903878, -11.426068)" fill="#57a64a">
      <path d="M15.714 11.428999999999998 l-8 31.429 l-6.2857 0 l0 -2.8571 l8 -31.429 l6.2857 0 l0 2.8571 z M32.856857142857145 11.428999999999998 l-8 31.429 l-6.2857 0 l0 -2.8571 l8 -31.429 l6.2857 0 l0 2.8571 z M68.00042857142857 17.714 l-9.1429 0 l0 16 l9.1429 0 l2.2857 -2.2857 l5.4286 0 l0 4.2857 l-4.2857 4.2857 l-15.714 0 l-4.2857 -4.2857 l0 -20 l4.2857 -4.2857 l15.714 0 l4.2857 4.2857 l0 4.2857 l-5.4286 0 z M102.28542857142857 11.428999999999998 l4.2857 4.2857 l0 20 l-4.2857 4.2857 l-16.571 0 l-4.2857 -4.2857 l0 -20 l4.2857 -4.2857 l16.571 0 z M99.14242857142857 33.7143 l0 -16 l-10.286 0 l0 16 l10.286 0 z M133.42857142857144 11.428999999999998 l7.4286 0 l0 28.571 l-7.4286 0 l0 -16 l-5.0286 9.7143 l-3.7143 0 l-4.9714 -9.7143 l0 16 l-7.4286 0 l0 -28.571 l7.4286 0 l6.8571 12.971 z M167.71428571428572 11.428999999999998 l7.4286 0 l0 28.571 l-7.4286 0 l0 -16 l-5.0286 9.7143 l-3.7143 0 l-4.9714 -9.7143 l0 16 l-7.4286 0 l0 -28.571 l7.4286 0 l6.8571 12.971 z M205.143 17.714 l-16.857 0 l0 4.8571 l14.571 0 l0 6.2857 l-14.571 0 l0 4.8571 l16.857 0 l0 6.2857 l-20 0 l-4.2857 -4.2857 l0 -24.286 l24.286 0 l0 6.2857 z M228.571 11.428999999999998 l7.4286 0 l0 28.571 l-6.5714 0 l-11.143 -16 l0 16 l-7.4286 0 l0 -28.571 l6.5714 0 l11.143 15.886 l0 -15.886 z M239.71428285714285 17.714 l0 -6.2857 l24.286 0 l0 6.2857 l-8.4571 0 l0 22.286 l-7.4286 0 l0 -22.286 l-8.4 0 z"/>
    </g>
    <g id="SvgjsG6292" featurekey="sloganFeature-0" transform="matrix(2.677845, 0, 0, 2.677845, -1.912517, 44.524365)" fill="#57a64a">
      <path d="M7.8571 5.714 l-4 15.714 l-3.1429 0 l0 -1.4286 l4 -15.714 l3.1429 0 l0 1.4286 z M16.428528571428572 5.714 l-4 15.714 l-3.1429 0 l0 -1.4286 l4 -15.714 l3.1429 0 l0 1.4286 z M25.714314285714284 17.8571 l0 -12.143 l3.7143 0 l0 11.143 l7.7143 0 l0 3.1429 l-9.2857 0 z M38.857142857142854 20 l0 -2.8571 l1.1429 0 l0 -8.5714 l-1.1429 0 l0 -2.8571 l6 0 l0 2.8571 l-1.1429 0 l0 8.5714 l1.1429 0 l0 2.8571 l-6 0 z M56.143142857142855 5.714 l3.7143 0 l0 14.286 l-3.2857 0 l-5.5714 -8 l0 8 l-3.7143 0 l0 -14.286 l3.2857 0 l5.5714 7.9429 l0 -7.9429 z M74.85671428571429 8.857 l-8.4286 0 l0 2.4286 l7.2857 0 l0 3.1429 l-7.2857 0 l0 2.4286 l8.4286 0 l0 3.1429 l-10 0 l-2.1429 -2.1429 l0 -12.143 l12.143 0 l0 3.1429 z M86.71471428571428 8.857 l-5.2857 0 l0 2.4286 l7 0 l2.1429 2.1429 l0 4.4286 l-2.1429 2.1429 l-8.5714 0 l-2.1429 -2.1429 l0 -2.1429 l2.7143 0 l1.1429 1.1429 l5.2857 0 l0 -2.4286 l-7 0 l-2.1429 -2.1429 l0 -4.4286 l2.1429 -2.1429 l8.5714 0 l2.1429 2.1429 l0 2.1429 l-2.7143 0 z"/>
    </g>
  </g>
</svg>