<?xml version="1.0" encoding="utf-8"?>
<svg xmlns="http://www.w3.org/2000/svg" viewBox="0 -17.5 350 350" class="looka-1j8o68f" style="background-color:#53688f" xmlns:bx="https://boxy-svg.com">
  <defs id="SvgjsDefs6278">
    <bx:grid x="-0.468" y="-17.33" width="43.794" height="43.794"/>
  </defs>
  <g transform="matrix(1, 0, 0, 1, -0.000004, -1.840694)">
    <g id="SvgjsG6279" featurekey="5TMTKC-0" transform="matrix(1.930073, 0, 0, 1.930073, 78.455804, 39.250779)" fill="#ffcee4" style="">
      <title xmlns="http://www.w3.org/2000/svg">Artboard 22</title>
      <path xmlns="http://www.w3.org/2000/svg" d="M32.6,58.54H74.45a4.19,4.19,0,0,0,4.18-4.18V16.69a4.19,4.19,0,0,0-4.18-4.18H68.79V9.81a4.18,4.18,0,0,0-8.36,0V12.5H46.49V9.81a4.18,4.18,0,0,0-8.36,0V12.5H32.6a4.19,4.19,0,0,0-4.18,4.18V54.36A4.19,4.19,0,0,0,32.6,58.54ZM36.78,26H70.27V50.18H36.78Zm25.4,11-3.64,3.51.83,5a1,1,0,0,1-1.43,1l-4.46-2.37L49,46.51a1,1,0,0,1-1.42-1l.88-5-3.6-3.54a1,1,0,0,1,.55-1.67l5-.7,2.26-4.52a1,1,0,0,1,1.76,0l2.22,4.54,5,.75A1,1,0,0,1,62.19,37ZM97.75,66.77A4.61,4.61,0,0,0,92,66C84.69,70.49,70.3,79.14,70.3,79.14a12,12,0,0,1-5.95,1.74L48,81h0a1.09,1.09,0,0,1-.09-2.17l16.73-.3a3.92,3.92,0,0,0,.12-7.83l-9.9-.73A49.33,49.33,0,0,1,42.7,67.4c-12.58-4.65-20-2.26-24-1a4.67,4.67,0,0,0-4.16-2.15l-8.65.39a5.09,5.09,0,0,0-5,5.26l1,19.2a5.15,5.15,0,0,0,5.46,4.79L16,93.49a4.61,4.61,0,0,0,3.88-2.42,3.36,3.36,0,0,0,2.2.83h.15l36.72,2.44q.7,0,1.41,0a23.65,23.65,0,0,0,13.51-4.24l23.34-16.4a4.53,4.53,0,0,0,.68-6.86ZM10.57,89.41a2.84,2.84,0,1,1,3-2.77A2.89,2.89,0,0,1,10.57,89.41Zm60.59-14a6.61,6.61,0,0,0-.91-4.31l13.56-7a4.32,4.32,0,0,1,5,.6C82.73,68.37,75.82,72.6,71.17,75.44Zm-6.23-7.49-1.69-.12L76,62.8a4.27,4.27,0,0,1,4.17.37L68.31,69.1A6.6,6.6,0,0,0,64.94,67.95Z"/>
    </g>
    <g id="SvgjsG6280" featurekey="7UBp9i-0" transform="matrix(1.98855, 0, 0, 1.98855, 52.103818, 225.372989)" fill="#ffcee4" style="">
      <path d="M10.72 16.3 l0.42 3.48 l-7.78 1.34 l-2.02 -2.16 l0.28 -10.08 l-0.74 0 l-0.12 -3.42 l9.34 -0.46 l0 3.5 l-4.96 0.24 l-0.08 2.7 l4.46 -0.52 l0.18 3.48 l-4.74 0.58 l-0.06 2.28 z M17.92 8.86 l3.12 1.2 l-5.04 11.66 l-4.72 -11.06 l3.1 -1.26 l1.64 3.86 z M24.42 14.18 l2.98 -0.44 c-0.16 -0.66 -0.94 -1.18 -1.32 -1.06 c-0.58 0.18 -1.2 0.8 -1.66 1.5 z M30.9 14.52 l0.08 1.22 l-6.86 1 c0.44 0.54 1.2 0.88 1.62 0.88 c1.84 0.04 4 -0.76 4 -0.76 l1.22 2.66 s-1 0.46 -1.92 0.76 c-0.86 0.28 -2.08 0.4 -3.24 0.4 c-2.32 0 -5.24 -0.96 -5.24 -4.4 c0 -2.46 1.54 -5 3.46 -6.16 c2.96 -1.78 6.58 -0.32 6.88 4.4 z M41.440000000000005 20.5 l-3.42 0.3 c0 -0.44 0.06 -4.68 -0.38 -7.28 c-0.54 0.14 -1.24 0.48 -1.96 0.9 l0.04 6.02 l-3.42 0.34 l-0.08 -10.7 l3.42 -0.34 l0 0.7 c0.56 -0.22 1.14 -0.4 1.66 -0.48 c2.86 -0.38 3.74 1.32 3.92 3.8 c0.14 1.86 0.22 6.74 0.22 6.74 z M50.080000000000005 16.18 l1.52 3.14 l-5.16 2.16 l-2 -2.04 l0 -5.74 l-1.64 0.14 l-0.28 -3.5 l1.9 -0.18 l0 -3 l3.32 -0.44 l0.02 3.16 l2.68 -0.24 l0.3 3.5 l-2.98 0.26 l0.02 3.62 z M59.2 5.1 l3.5 -0.04 l-0.12 15.18 l-3.5 0.02 l0.04 -4.48 l-2.76 0.24 l0.06 4.34 l-3.5 0.14 l-0.22 -14.7 l3.5 -0.14 l0.1 6.86 l2.84 -0.26 z M70.28 17.04 c-0.02 -0.36 -0.02 -0.7 -0.02 -1.02 c-1.26 0.34 -2.6 0.84 -3.26 1.4 c0.7 0.16 2.04 -0.08 3.28 -0.38 z M73.5 15.52 c0 1.8 0.02 3.8 -0.06 4.94 l-3.22 0.4 c0.02 -0.2 0.02 -0.42 0.04 -0.64 c-0.22 0.04 -0.42 0.08 -0.62 0.14 c-0.96 0.18 -1.94 0.3 -2.96 0.22 c-1.82 -0.14 -2.66 -1.36 -2.78 -2.56 c-0.16 -1.44 0.72 -2.82 2.08 -3.58 c1.16 -0.62 2.62 -1.08 4.16 -1.38 c-0.06 -0.18 -0.14 -0.36 -0.24 -0.5 c-0.48 -0.68 -2.96 0.14 -3.86 0.74 l-1.54 -2.56 c2.58 -1.72 8 -2.84 8.76 1.08 c0.22 1.22 0.24 2.52 0.24 3.7 z M84.46 20.5 l-3.42 0.3 c0 -0.44 0.06 -4.68 -0.38 -7.28 c-0.54 0.14 -1.24 0.48 -1.96 0.9 l0.04 6.02 l-3.42 0.34 l-0.08 -10.7 l3.42 -0.34 l0 0.7 c0.56 -0.22 1.14 -0.4 1.66 -0.48 c2.86 -0.38 3.74 1.32 3.92 3.8 c0.14 1.86 0.22 6.74 0.22 6.74 z M92.22 16.18 l-0.02 -2.08 c-1.1 0.3 -2.16 0.9 -2.82 1.54 c-0.44 0.42 -0.58 0.66 -0.58 0.72 c0 0.52 0.92 0.38 1.26 0.36 c0.72 -0.04 1.46 -0.22 2.16 -0.54 z M95.46 5.359999999999999 l0.24 15.02 l-3.4 0.34 l0 -0.96 c-3.1 0.88 -6.72 0.54 -6.72 -3.4 c0 -3.04 3.58 -5.16 6.56 -5.78 l-0.08 -4.62 z M97.61999999999999 5.84 l3.44 -0.32 l-0.06 14.88 l-3.44 0.34 z M106.22 14.18 l2.98 -0.44 c-0.16 -0.66 -0.94 -1.18 -1.32 -1.06 c-0.58 0.18 -1.2 0.8 -1.66 1.5 z M112.7 14.52 l0.08 1.22 l-6.86 1 c0.44 0.54 1.2 0.88 1.62 0.88 c1.84 0.04 4 -0.76 4 -0.76 l1.22 2.66 s-1 0.46 -1.92 0.76 c-0.86 0.28 -2.08 0.4 -3.24 0.4 c-2.32 0 -5.24 -0.96 -5.24 -4.4 c0 -2.46 1.54 -5 3.46 -6.16 c2.96 -1.78 6.58 -0.32 6.88 4.4 z M122.74 15.34 l-3.38 -0.34 l0 -1.36 c-0.62 0.28 -1.34 0.74 -2.08 1.3 l0.18 5.62 l-3.26 0.5 l-0.34 -11.16 l3.24 -0.52 l0.04 1.4 c0.86 -0.5 1.94 -0.98 2.96 -0.98 c2.58 0 2.98 2.34 2.64 5.54 z"/>
    </g>
  </g>
</svg>