<svg xmlns="http://www.w3.org/2000/svg" viewBox="-54 -36 392 392"
    style="background-color:#004b93;" class="css-1j8o68f">
  <defs id="SvgjsDefs3631">
    <linearGradient id="SvgjsLinearGradient3636">
      <stop id="SvgjsStop3637" stop-color="#834f2a" offset="0"></stop>
      <stop id="SvgjsStop3638" stop-color="#dba173" offset="0.5"></stop>
      <stop id="SvgjsStop3639" stop-color=" #834F2A" offset="1"></stop>
    </linearGradient>
    <linearGradient id="SvgjsLinearGradient3640">
      <stop id="SvgjsStop3641" stop-color="#834f2a" offset="0"></stop>
      <stop id="SvgjsStop3642" stop-color="#dba173" offset="0.5"></stop>
      <stop id="SvgjsStop3643" stop-color=" #834F2A" offset="1"></stop>
    </linearGradient>
  </defs>
  <g id="SvgjsG3632" featurekey="symbolFeature-0"
    transform="matrix(4.417387901329848,0,0,4.417387901329848,-68.96363831737446,-88.48028269681642)"
    fill="url(#SvgjsLinearGradient3636)">
    <path xmlns="http://www.w3.org/2000/svg"
      d="M58.75,29.184c-1.011,0-1.833,0.822-1.833,1.833c0,1.011,0.822,1.833,1.833,1.833c1.011,0,1.833-0.822,1.833-1.833  C60.583,30.006,59.761,29.184,58.75,29.184z M58.75,31.851c-0.459,0-0.833-0.374-0.833-0.833s0.374-0.833,0.833-0.833  s0.833,0.374,0.833,0.833S59.209,31.851,58.75,31.851z M47.541,77.031c4.388,0,12.688-0.627,12.688-3  c0-0.125-0.031-0.246-0.077-0.365h0.015V50.57c0.009-0.021,0.024-0.056,0.027-0.065l-0.027-0.011v-6.369  c0-0.281-0.12-0.547-0.348-0.794c0.028-0.093,0.062-0.184,0.062-0.283c0-2.326-8.072-2.941-12.34-2.941s-12.339,0.615-12.339,2.941  c0,0.099,0.034,0.19,0.063,0.283c-0.228,0.248-0.348,0.513-0.348,0.794v23.743c-0.014,0.066-0.022,0.109-0.023,0.115l0.023,0.004  v5.68h0.014c-0.045,0.119-0.077,0.24-0.077,0.365C34.854,76.404,43.153,77.031,47.541,77.031z M47.541,76.031  c-7.623,0-11.596-1.37-11.686-1.979c1.836,1.263,7.154,1.842,11.686,1.842c4.533,0,9.851-0.58,11.686-1.843  C59.136,74.662,55.163,76.031,47.541,76.031z M47.541,41.107c7.482,0,11.34,1.36,11.34,1.941c0,0.006-0.007,0.013-0.008,0.02  l-0.055,0.069c-0.175,0.217-0.564,0.435-1.13,0.643c-6.464,2.084-16.417,1.461-20.286,0.002c-0.569-0.208-1.272-0.38-1.2-0.733  C36.396,42.385,40.06,41.107,47.541,41.107z M35.971,44.18c0.007,0.004,0.015,0.009,0.022,0.013  c0.139,0.091,2.668,1.567,10.955,1.791c8.964-0.114,12.06-1.726,12.217-1.834c-0.106,0.611-4.057,1.975-11.623,1.975  c-7.571,0-11.522-1.366-11.623-1.976C35.934,44.16,35.955,44.169,35.971,44.18z M35.917,45.398c2.32,1.332,8.178,1.727,11.625,1.727  s9.305-0.395,11.625-1.727v1.609c-0.483,0.885-3.649,6.012-13.325,8.33c-5.722,1.371-8.592,6.111-9.925,9.382V45.398z   M46.075,56.309c7.789-1.866,11.518-5.441,13.092-7.492v1.534c-0.555,1.173-3.874,7.316-13.45,9.61  c-5.706,1.367-8.508,5.466-9.8,8.284C35.917,68.246,38.361,58.157,46.075,56.309z M35.917,71.221  c0.098-0.456,1.922-8.345,10.033-10.287c7.789-1.866,11.594-6.094,13.217-8.559c0,0,0.01,17.447,0,20.309  c-2.458,1.482-5.469,2.21-11.625,2.21c-6.155,0-10.062-0.989-11.337-1.854C35.625,72.719,35.917,71.221,35.917,71.221z   M47.702,43.759c0.048,0.036,3.248,0.959,3.248,0.959c0.346,0.246,4.805-0.608,4.805-0.608c0.245-0.033,0.429-0.241,0.433-0.488  c0.004-0.247-0.174-0.46-0.418-0.5l-7.273-1.203c-0.45,0-1.232,0.085-1.419,0.653C46.884,43.154,47.5,43.609,47.702,43.759z   M52.336,43.564l-1.212,0.165L48.3,42.923C48.343,42.917,52.336,43.564,52.336,43.564z M52.583,35.571  c0,1.285,1.046,2.331,2.331,2.331s2.331-1.046,2.331-2.331s-1.046-2.331-2.331-2.331S52.583,34.286,52.583,35.571z M56.245,35.571  c0,0.734-0.597,1.331-1.331,1.331s-1.331-0.597-1.331-1.331s0.597-1.331,1.331-1.331S56.245,34.837,56.245,35.571z M59.938,24.28  c0-2.343-1.907-4.25-4.25-4.25s-4.25,1.907-4.25,4.25s1.907,4.25,4.25,4.25S59.938,26.624,59.938,24.28z M55.688,27.53  c-1.792,0-3.25-1.458-3.25-3.25s1.458-3.25,3.25-3.25s3.25,1.458,3.25,3.25S57.479,27.53,55.688,27.53z">
    </path>
  </g>
  <g id="SvgjsG3633" featurekey="nameFeature-0"
    transform="matrix(1.615885700557683,0,0,1.615885700557683,-2.240732767959498,255.08329436379844)"
    fill="url(#SvgjsLinearGradient3640)">
    <path
      d="M22.246 27.344 l1.9531 0 l-0.25391 1.1914 l-10.078 0 l-2.6563 11.543 l-9.8242 0 l2.9688 -12.734 l-1.9922 0 l3.8086 -16.484 l20.742 0 l-1.7188 7.4023 l-10.918 0 l-0.68359 2.8711 l10.059 0 z M27.1875 27.578 l-2.0508 0 l1.6992 -7.5586 l9.3164 0 l-1.6992 7.5586 l2.0703 0 l-2.7539 12.422 l-9.3164 0 z M38.555 10.469000000000001 l-1.6211 7.0703 l-9.6484 0 l1.6211 -7.0703 l9.6484 0 z M56.718843750000005 27.266 l-6.1328 5.8008 l8.2227 0 l-1.6211 6.9141 l-19.941 0 l1.25 -5.5078 l7.6758 -7.207 l-1.7578 0 l2.5586 -2.4219 l-7.5781 0 l1.5234 -6.7969 l19.316 0 l-1.2109 5.3906 l-4.082 3.8281 l1.7773 0 z M78.769625 27.266 l-6.1328 5.8008 l8.2227 0 l-1.6211 6.9141 l-19.941 0 l1.25 -5.5078 l7.6758 -7.207 l-1.7578 0 l2.5586 -2.4219 l-7.5781 0 l1.5234 -6.7969 l19.316 0 l-1.2109 5.3906 l-4.082 3.8281 l1.7773 0 z M107.83240624999999 30.664099999999998 c-1.0742 4.4141 -4.7852 7.6172 -9.1016 8.8477 c-1.3672 0.35156 -3.0664 0.48828 -5.1367 0.48828 l-12.031 0 l2.9297 -12.734 l-2.2266 0 l3.8086 -16.406 c3.3789 0 13.633 -0.64453 17.09 0.625 c2.9297 1.1523 4.3164 3.5742 3.5938 6.7383 c-0.54688 2.3633 -1.9727 4.1992 -3.8867 5.625 c1.6016 0.80078 2.5391 2.0117 2.8516 3.418 l2.1484 0 c0.25391 1.0938 0.19531 2.1484 -0.039063 3.3984 z M97.83240624999999 30.5469 c0.625 -2.7148 -2.0508 -2.1875 -3.8086 -2.1875 l-1.0547 4.5117 c2.168 0 4.2969 0.25391 4.8633 -2.3242 z M96.66040625 20 c0.44922 -1.8164 -1.0547 -2.0313 -2.4805 -2.0313 l-0.74219 3.5352 c1.0938 0.097656 2.9297 -0.058594 3.2227 -1.5039 z M110.54690625 27.578 l-2.1094 0 c0.85938 -3.75 1.8945 -7.5586 2.3438 -9.375 l9.2773 0 l-1.9336 9.375 l2.1289 0 l-1.0352 4.8828 c-0.46875 2.1094 2.0117 1.5625 2.3828 0.56641 l1.25 -5.4492 l-2.0703 0 l2.1094 -9.375 l9.2969 0 l-2.1484 9.375 l2.1094 0 l-2.832 12.422 l-9.2969 0 l0.097656 -0.48828 c-3.7109 1.3086 -10.195 1.4844 -10.879 -3.418 c-0.17578 -1.4844 0.48828 -4.9609 1.3086 -8.5156 z M151.66025 27.266 l-6.1328 5.8008 l8.2227 0 l-1.6211 6.9141 l-19.941 0 l1.25 -5.5078 l7.6758 -7.207 l-1.7578 0 l2.5586 -2.4219 l-7.5781 0 l1.5234 -6.7969 l19.316 0 l-1.2109 5.3906 l-4.082 3.8281 l1.7773 0 z M173.71103125 27.266 l-6.1328 5.8008 l8.2227 0 l-1.6211 6.9141 l-19.941 0 l1.25 -5.5078 l7.6758 -7.207 l-1.7578 0 l2.5586 -2.4219 l-7.5781 0 l1.5234 -6.7969 l19.316 0 l-1.2109 5.3906 l-4.082 3.8281 l1.7773 0 z">
    </path>
  </g>
</svg>