<?xml version="1.0" encoding="utf-8"?>
<svg xmlns="http://www.w3.org/2000/svg" viewBox="0 -0.537 328.178 279.713" class="looka-1j8o68f" style="background-color:#000000;" xmlns:bx="https://boxy-svg.com">
  <defs id="SvgjsDefs5413">
    <linearGradient id="SvgjsLinearGradient5420">
      <stop id="SvgjsStop5421" stop-color="#905e26" offset="0"/>
      <stop id="SvgjsStop5422" stop-color="#f5ec9b" offset="0.5"/>
      <stop id="SvgjsStop5423" stop-color="#905e26" offset="1"/>
    </linearGradient>
    <linearGradient id="SvgjsLinearGradient5424">
      <stop id="SvgjsStop5425" stop-color="#905e26" offset="0"/>
      <stop id="SvgjsStop5426" stop-color="#f5ec9b" offset="0.5"/>
      <stop id="SvgjsStop5427" stop-color="#905e26" offset="1"/>
    </linearGradient>
    <linearGradient id="SvgjsLinearGradient5428">
      <stop id="SvgjsStop5429" stop-color="#905e26" offset="0"/>
      <stop id="SvgjsStop5430" stop-color="#f5ec9b" offset="0.5"/>
      <stop id="SvgjsStop5431" stop-color="#905e26" offset="1"/>
    </linearGradient>
    <bx:grid x="0" y="0" width="40.962" height="34.855"/>
  </defs>
  <g transform="matrix(1, 0, 0, 1, -0.000005, 0.917851)">
    <g id="SvgjsG5414" featurekey="odWo6G-0" fill="url(#SvgjsLinearGradient5420)" style="" transform="matrix(1.3269, 0, 0, 1.3269, 97.743646, 20.100853)">
      <g xmlns="http://www.w3.org/2000/svg">
        <path fill="url(#SvgjsLinearGradient5420)" d="M75.431,41.518l-11.03-19.09c-0.27-0.47-0.86-0.63-1.33-0.36l-35.99,20.78h18.28l0.47-0.29   c0.17-0.14,0.27-0.35,0.25-0.57l-1-5.65c-0.03-0.32,0.14-0.58,0.38-0.72c0.24-0.14,0.55-0.15,0.82,0.02l4.39,3.7   c0.18,0.12,0.41,0.15,0.62,0.07l5-2.71c0.59-0.24,1.2,0.31,1.03,0.92l-2.06,5.23h19.82C75.541,42.578,75.701,41.988,75.431,41.518z   "/>
        <path fill="url(#SvgjsLinearGradient5420)" d="M89.271,33.498l-11-19.05c-0.55-0.96-1.77-1.29-2.73-0.73c-3.35,1.93-7.63,0.78-9.56-2.57   c-0.55-0.95-1.78-1.28-2.73-0.73l-48.5,28c-0.96,0.55-1.29,1.78-0.73,2.73c1.93,3.35,0.78,7.63-2.57,9.57   c-0.59,0.34-0.95,0.94-0.99,1.58c0.63-0.29,1.34-0.45,2.08-0.45c2.21,0,4-1.79,4-4c0-2.76,2.24-5,5-5h0.5   c0.33-0.54,0.8-1.01,1.39-1.35l38.14-22.03c1.9-1.09,4.34-0.44,5.43,1.46l11.02,19.09c0.53,0.92,0.65,1.97,0.43,2.92   c2.33,0.42,4.09,2.46,4.09,4.91c0,0.71,0.19,1.37,0.51,1.95l2.2-1.27c0.95-0.55,1.28-1.78,0.73-2.73   c-1.94-3.35-0.79-7.63,2.56-9.57C89.501,35.678,89.821,34.458,89.271,33.498z"/>
        <g>
          <path fill="url(#SvgjsLinearGradient5420)" d="M71.562,55.848H27.52c-0.541,0-0.979,0.438-0.979,0.979v22.042c0,0.541,0.438,0.979,0.979,0.979h44.042    c0.541,0,0.979-0.438,0.979-0.979V56.827C72.541,56.286,72.102,55.848,71.562,55.848z M58.807,66.441l-4.476,3.563    c-0.159,0.155-0.232,0.378-0.194,0.597l1.559,5.414c0.086,0.499-0.311,0.905-0.761,0.905c-0.119,0-0.241-0.028-0.36-0.09    l-4.72-3.118c-0.098-0.052-0.206-0.078-0.314-0.078c-0.108,0-0.216,0.026-0.314,0.078l-4.72,3.118    c-0.118,0.062-0.241,0.09-0.36,0.09c-0.45,0-0.847-0.406-0.761-0.905l1.559-5.414c0.038-0.219-0.035-0.442-0.194-0.597    l-4.476-3.563c-0.458-0.447-0.206-1.226,0.428-1.318l5.683-0.153c0.22-0.032,0.41-0.17,0.508-0.369l1.954-5.396    c0.142-0.287,0.417-0.431,0.693-0.431s0.551,0.144,0.693,0.431l1.954,5.396c0.098,0.199,0.288,0.337,0.508,0.369l5.683,0.153    C59.012,65.216,59.265,65.994,58.807,66.441z"/>
        </g>
        <path fill="url(#SvgjsLinearGradient5420)" d="M86.541,54.848c-3.866,0-7-3.134-7-7c0-1.105-0.895-2-2-2h-56c-1.105,0-2,0.895-2,2c0,3.866-3.134,7-7,7   c-1.105,0-2,0.895-2,2v22c0,1.105,0.895,2,2,2c3.866,0,7,3.134,7,7c0,1.105,0.895,2,2,2h56c1.105,0,2-0.895,2-2   c0-3.866,3.134-7,7-7c1.105,0,2-0.895,2-2v-22C88.541,55.744,87.645,54.848,86.541,54.848z M75.541,78.869   c0,2.194-1.785,3.979-3.979,3.979H27.52c-2.194,0-3.979-1.785-3.979-3.979V56.827c0-2.194,1.785-3.979,3.979-3.979h44.042   c2.194,0,3.979,1.785,3.979,3.979V78.869z"/>
      </g>
    </g>
    <g id="SvgjsG5415" featurekey="VGK2BT-0" transform="matrix(3.937237, 0, 0, 3.937237, -11.07079, 182.607043)" fill="url(#SvgjsLinearGradient5424)" style="">
      <path d="M 26.291 -7.931 C 27.424 -7.931 28.386 -7.601 29.175 -6.942 C 29.965 -6.282 30.401 -5.441 30.485 -4.42 L 28.395 -4.42 C 28.265 -4.977 28.014 -5.395 27.642 -5.674 C 27.271 -5.952 26.82 -6.092 26.291 -6.092 C 25.436 -6.092 24.772 -5.782 24.298 -5.165 C 23.824 -4.547 23.587 -3.718 23.587 -2.678 C 23.587 -1.656 23.829 -0.846 24.312 -0.247 C 24.796 0.353 25.455 0.652 26.291 0.652 C 27.722 0.652 28.511 -0.063 28.659 -1.494 L 26.458 -1.494 L 26.458 -3.124 L 30.638 -3.124 L 30.638 2.255 L 29.245 2.255 L 29.022 1.126 C 28.325 2.036 27.415 2.491 26.291 2.491 C 24.823 2.491 23.641 2.009 22.744 1.042 C 21.849 0.077 21.4 -1.163 21.4 -2.678 C 21.4 -4.22 21.846 -5.481 22.738 -6.461 C 23.629 -7.441 24.814 -7.931 26.291 -7.931 Z M 35.696 -5.144 C 36.848 -5.144 37.758 -4.793 38.427 -4.092 C 39.096 -3.391 39.43 -2.473 39.43 -1.34 C 39.43 -0.198 39.089 0.72 38.406 1.412 C 37.723 2.104 36.82 2.45 35.696 2.45 C 34.553 2.45 33.648 2.099 32.979 1.398 C 32.31 0.697 31.976 -0.216 31.976 -1.34 C 31.976 -2.501 32.317 -3.426 33 -4.113 C 33.682 -4.8 34.581 -5.144 35.696 -5.144 Z M 33.954 -1.34 C 33.954 -0.606 34.103 -0.04 34.4 0.36 C 34.697 0.759 35.129 0.959 35.696 0.959 C 36.281 0.959 36.72 0.755 37.013 0.346 C 37.305 -0.063 37.451 -0.625 37.451 -1.34 C 37.451 -2.083 37.301 -2.654 36.999 -3.054 C 36.697 -3.453 36.258 -3.653 35.682 -3.653 C 35.125 -3.653 34.697 -3.453 34.4 -3.054 C 34.103 -2.654 33.954 -2.083 33.954 -1.34 Z M 42.746 -7.694 L 42.746 2.255 L 40.768 2.255 L 40.768 -7.694 L 42.746 -7.694 Z M 51.329 -7.694 L 51.329 2.255 L 49.448 2.255 L 49.448 1.335 L 49.421 1.335 C 48.993 2.078 48.264 2.45 47.233 2.45 C 46.239 2.45 45.452 2.087 44.871 1.363 C 44.291 0.638 44 -0.286 44 -1.41 C 44 -2.506 44.296 -3.403 44.885 -4.099 C 45.475 -4.796 46.244 -5.144 47.191 -5.144 C 47.628 -5.144 48.039 -5.054 48.424 -4.873 C 48.81 -4.691 49.11 -4.424 49.323 -4.071 L 49.351 -4.071 L 49.351 -7.694 L 51.329 -7.694 Z M 45.979 -1.354 C 45.979 -0.695 46.135 -0.144 46.446 0.297 C 46.757 0.739 47.182 0.959 47.721 0.959 C 48.288 0.959 48.713 0.752 48.996 0.339 C 49.279 -0.074 49.421 -0.644 49.421 -1.368 C 49.421 -2.093 49.272 -2.654 48.975 -3.054 C 48.678 -3.453 48.255 -3.653 47.707 -3.653 C 47.14 -3.653 46.71 -3.444 46.418 -3.026 C 46.125 -2.608 45.979 -2.051 45.979 -1.354 Z M 56.15 -5.144 C 56.829 -5.144 57.432 -4.986 57.962 -4.671 C 58.491 -4.354 58.907 -3.897 59.209 -3.298 C 59.511 -2.699 59.662 -2.009 59.662 -1.229 C 59.662 -1.154 59.658 -1.034 59.648 -0.867 L 54.451 -0.867 C 54.469 -0.29 54.621 0.158 54.903 0.478 C 55.187 0.798 55.621 0.959 56.206 0.959 C 56.569 0.959 56.901 0.868 57.202 0.687 C 57.505 0.506 57.697 0.286 57.781 0.025 L 59.522 0.025 C 59.012 1.641 57.888 2.45 56.15 2.45 C 55.491 2.441 54.88 2.296 54.318 2.018 C 53.757 1.739 53.308 1.305 52.974 0.715 C 52.639 0.125 52.472 -0.56 52.472 -1.34 C 52.472 -2.074 52.642 -2.743 52.981 -3.347 C 53.32 -3.95 53.771 -4.401 54.332 -4.698 C 54.894 -4.995 55.5 -5.144 56.15 -5.144 Z M 57.669 -2.121 C 57.577 -2.659 57.405 -3.049 57.154 -3.291 C 56.903 -3.532 56.546 -3.653 56.081 -3.653 C 55.598 -3.653 55.217 -3.516 54.938 -3.242 C 54.66 -2.968 54.497 -2.594 54.451 -2.121 L 57.669 -2.121 Z M 64.957 -5.144 C 65.876 -5.144 66.543 -4.912 66.956 -4.448 C 67.37 -3.983 67.576 -3.244 67.576 -2.232 L 67.576 2.255 L 65.598 2.255 L 65.598 -1.828 C 65.598 -2.422 65.503 -2.863 65.312 -3.152 C 65.122 -3.439 64.794 -3.584 64.33 -3.584 C 63.791 -3.584 63.401 -3.421 63.159 -3.096 C 62.918 -2.771 62.797 -2.236 62.797 -1.494 L 62.797 2.255 L 60.818 2.255 L 60.818 -4.949 L 62.699 -4.949 L 62.699 -3.946 L 62.741 -3.946 C 63.234 -4.744 63.972 -5.144 64.957 -5.144 Z" style=""/>
    </g>
    <g id="SvgjsG5416" featurekey="VGK2BT-1" transform="matrix(2.799232, 0, 0, 2.799232, 67.123582, 186.463733)" fill="url(#SvgjsLinearGradient5428)" style="">
      <path d="M11.96 5.720000000000001 l0 2.64 l-4.28 0 l0 11.64 l-3.14 0 l0 -11.64 l-4.28 0 l0 -2.64 l11.7 0 z M16.22 5.720000000000001 l0 2.34 l-2.84 0 l0 -2.34 l2.84 0 z M16.22 9.66 l0 10.34 l-2.84 0 l0 -10.34 l2.84 0 z M23.42 9.38 c1.4 0 2.54 0.35664 3.42 1.07 s1.36 1.6633 1.44 2.85 l-2.78 0 c-0.18666 -1.1867 -0.88666 -1.78 -2.1 -1.78 c-0.74666 0 -1.3367 0.30666 -1.77 0.92 s-0.65 1.4267 -0.65 2.44 c0 0.97334 0.20666 1.76 0.62 2.36 s0.99334 0.9 1.74 0.9 c1.2933 0 2.0466 -0.7 2.26 -2.1 l2.74 0 c-0.18666 1.3733 -0.71666 2.4234 -1.59 3.15 s-2.0034 1.09 -3.39 1.09 c-1.5333 0 -2.7866 -0.49 -3.76 -1.47 s-1.46 -2.2566 -1.46 -3.83 c0 -1.7067 0.48 -3.0666 1.44 -4.08 s2.24 -1.52 3.84 -1.52 z M33.040000000000006 5.720000000000001 l0 7.66 l3.58 -3.72 l3.36 0 l-3.9 3.8 l4.34 6.54 l-3.44 0 l-2.84 -4.62 l-1.1 1.06 l0 3.56 l-2.84 0 l0 -14.28 l2.84 0 z M46.2 9.38 c0.97334 0 1.84 0.22664 2.6 0.67998 s1.3567 1.11 1.79 1.97 s0.65 1.85 0.65 2.97 c0 0.10666 -0.0066602 0.28 -0.02 0.52 l-7.46 0 c0.02666 0.82666 0.24332 1.47 0.64998 1.93 s1.03 0.69 1.87 0.69 c0.52 0 0.99666 -0.13 1.43 -0.39 s0.71 -0.57666 0.83 -0.95 l2.5 0 c-0.73334 2.32 -2.3466 3.48 -4.84 3.48 c-0.94666 -0.01334 -1.8233 -0.22 -2.63 -0.62 s-1.45 -1.0233 -1.93 -1.87 s-0.72 -1.83 -0.72 -2.95 c0 -1.0533 0.24334 -2.0134 0.73 -2.88 s1.1333 -1.5133 1.94 -1.94 s1.6767 -0.64 2.61 -0.64 z M48.38 13.719999999999999 c-0.13334 -0.77334 -0.38 -1.3333 -0.74 -1.68 s-0.87334 -0.52 -1.54 -0.52 c-0.69334 0 -1.24 0.19666 -1.64 0.59 s-0.63334 0.93 -0.7 1.61 l4.62 0 z M56.50000000000001 6.5600000000000005 l0.000019531 3.1 l2.08 0 l0 1.9 l-2.08 0 l0 5.12 c0 0.48 0.08 0.8 0.24 0.96 s0.48 0.24 0.96 0.24 c0.34666 0 0.64 -0.02666 0.88 -0.08 l0 2.22 c-0.4 0.06666 -0.96 0.1 -1.68 0.1 c-1.0933 0 -1.9067 -0.18666 -2.44 -0.56 s-0.8 -1.02 -0.8 -1.94 l0 -6.06 l-1.72 0 l0 -1.9 l1.72 0 l0 -3.1 l2.84 0 z M64.18 9.38 c1.3867 0 2.47 0.28002 3.25 0.84002 s1.2167 1.38 1.31 2.46 l-2.7 0 c-0.04 -0.49334 -0.22 -0.85 -0.54 -1.07 s-0.78666 -0.33 -1.4 -0.33 c-0.53334 0 -0.93 0.08 -1.19 0.24 s-0.39 0.4 -0.39 0.72 c0 0.24 0.08666 0.44 0.26 0.6 s0.43668 0.3 0.79002 0.42 s0.74334 0.22 1.17 0.3 c1.2933 0.25334 2.2066 0.51334 2.74 0.78 s0.92334 0.58666 1.17 0.96 s0.37 0.83334 0.37 1.38 c0 1.16 -0.42334 2.05 -1.27 2.67 s-1.9967 0.93 -3.45 0.93 c-1.52 0 -2.7034 -0.32666 -3.55 -0.98 s-1.2833 -1.54 -1.31 -2.66 l2.7 0 c0 0.53334 0.20666 0.95668 0.62 1.27 s0.93334 0.47 1.56 0.47 c0.53334 0 0.97668 -0.11666 1.33 -0.35 s0.53 -0.55668 0.53 -0.97002 c0 -0.26666 -0.11 -0.48666 -0.33 -0.66 s-0.53 -0.32668 -0.93 -0.46002 s-1.02 -0.28668 -1.86 -0.46002 c-0.66666 -0.13334 -1.26 -0.31334 -1.78 -0.54 s-0.91666 -0.52332 -1.19 -0.88998 s-0.41 -0.81666 -0.41 -1.35 c0 -0.68 0.16334 -1.2733 0.49 -1.78 s0.82666 -0.89 1.5 -1.15 s1.51 -0.39 2.51 -0.39 z"/>
    </g>
  </g>
</svg>