<?xml version="1.0" encoding="utf-8"?>
<svg xmlns="http://www.w3.org/2000/svg" viewBox="0 -61.6045 299.809 300" class="looka-1j8o68f" xmlns:bx="https://boxy-svg.com">
  <defs id="SvgjsDefs3557">
    <bx:grid x="0" y="-11.646" width="37.363" height="25.087"/>
  </defs>
  <rect x="0" y="-61.6045" width="299.809" height="300" style="fill: #ba68c8;"/>
  <g transform="matrix(1, 0, 0, 1, -0.000003, -0.432874)">
    <g id="SvgjsG3558" featurekey="symbolFeature-0" transform="matrix(1.520357, 0, 0, 1.520357, 73.886659, -12.665338)" fill="#e4d44d" style="">
      <g xmlns="http://www.w3.org/2000/svg" transform="translate(0,-952.36218)">
        <path style="text-indent:0;text-transform:none;direction:ltr;block-progression:tb;baseline-shift:baseline;color:;enable-background:accumulate;" d="m 50.000002,969.36224 c -3.854,0 -7,3.14583 -7,7 0,2.16797 1.0056,4.12035 2.5625,5.40625 l -12.9375,20.31251 -17.0625,-7.68748 c 0.2791,-0.622 0.4375,-1.3086 0.4375,-2.0313 0,-2.74956 -2.2504,-4.99998 -5,-4.99998 -2.7495995,0 -4.9999995,2.25042 -4.9999995,4.99998 0,2.1206 1.3448,3.9329 3.2188,4.6563 l 11.7811995,27.49988 0,9.8437 c 10e-5,0.5236 0.4764,0.9999 1,1 l 56.000001,0 c 0.5236,-10e-5 0.9999,-0.4764 1,-1 l 0,-9.8437 11.7812,-27.49988 c 1.873994,-0.7234 3.218795,-2.5357 3.218795,-4.6563 0,-2.74956 -2.250395,-4.99998 -4.999995,-4.99998 -2.7496,0 -5,2.25042 -5,4.99998 0,0.7227 0.1584,1.4093 0.4375,2.0313 l -17.0625,7.68748 -12.9375,-20.31251 c 1.5569,-1.28591 2.5625,-3.2383 2.5625,-5.40625 0,-3.85413 -3.1459,-7 -7,-7 z m 0,2 c 2.7733,0 5,2.22677 5,5 0,2.77323 -2.2267,5 -5,5 -2.773,0 -5,-2.22681 -5,-5 0,-2.77319 2.227,-5 5,-5 z m -2.7188,11.4375 c 0.837,0.35514 1.7553,0.5625 2.7188,0.5625 0.963501,0 1.8818,-0.20735 2.7188,-0.5625 l 13.437401,21.09376 c 0.2552,0.3993 0.8171,0.5679 1.25,0.375 l 18.25,-8.21878 c 0.7707,0.7008 1.7549,1.1698 2.8438,1.2813 l -11.1562,26.03118 -54.6876,0 -11.1562,-26.03118 c 1.0889,-0.1115 2.0731,-0.5805 2.8438,-1.2813 l 18.25,8.21878 c 0.432899,0.1929 0.9948,0.024 1.25,-0.375 z m -36.2812,6.5625 c 1.6686,0 3,1.33138 3,2.99998 0,1.6687 -1.3314,3 -3,3 -1.6685995,0 -2.9999995,-1.3313 -2.9999995,-3 0,-1.6686 1.3314,-2.99998 2.9999995,-2.99998 z m 78.000001,0 c 1.6686,0 3,1.33138 3,2.99998 0,1.6687 -1.3314,3 -3,3 -1.6686,0 -3,-1.3313 -3,-3 0,-1.6686 1.3314,-2.99998 3,-2.99998 z m -39,14.99996 c -3.3018,0 -6,2.6981 -6,6 0,3.3019 2.6982,6 6,6 3.3019,0 6,-2.6981 6,-6 0,-3.3018 -2.6981,-6 -6,-6 z m 0,2 c 2.2209,0 4,1.7791 4,4 0,2.221 -1.7791,4 -4,4 -2.2208,0 -4,-1.7791 -4,-4 0,-2.2209 1.7792,-4 4,-4 z m -27,19 54,0 0,7.9999 -54,0 z" fill="#e4d44d" fill-opacity="1" stroke="none" marker="none" visibility="visible" display="inline" overflow="visible"/>
      </g>
    </g>
    <g id="SvgjsG3559" featurekey="nameFeature-0" transform="matrix(1.015149, 0, 0, 1.015149, 36.578053, 114.571283)" fill="#e4d44d" style="">
      <path d="M28.12 40.4 c-0.68 0 -1.04 -0.28 -1.48 -0.76 l-19.04 -19.92 l0 15.2 c0 2.72 1.6 3.16 3.88 3.72 c0.32 0.08 0.16 1.36 -0.24 1.36 l-9.48 0 c-0.32 0 -0.56 -1.24 -0.2 -1.36 c1.68 -0.56 3.28 -0.88 3.28 -3.72 l0 -15.52 c0 -2.84 -0.44 -4.2 -1.48 -5.6 c-0.36 -0.48 -0.72 -0.8 -0.72 -0.92 c0 -0.36 0.24 -0.88 0.8 -0.88 l2.96 0 c0.4 0 0.68 0.04 0.96 0.36 l18.64 19.72 l0 -15.04 c0 -2.84 -1.8 -3.16 -3.88 -3.68 c-0.32 -0.08 -0.16 -1.36 0.24 -1.36 l9.48 0 c0.32 0 0.52 1.28 0.2 1.36 c-1.76 0.52 -3.28 0.84 -3.28 3.68 l0 15.56 c0 2.64 0.08 5.56 0.48 7.04 c0.16 0.6 -0.48 0.76 -1.12 0.76 z M50.01 36.92 c0.36 -0.08 0.68 1 0.44 1.12 c-1.56 0.76 -4.8 2.6 -5.56 2.6 c-4.92 0 -11.24 -2.32 -11.24 -9.4 c0 -4.76 2.92 -10.56 10.08 -10.56 c6.04 0 6.8 4.32 6.8 6 c0 1.04 -0.32 2.6 -0.72 3.52 l-11.88 0.32 c0.76 4.96 4.8 7.04 7.96 7.04 c0.36 0 2.08 -0.2 4.12 -0.64 z M42.33 23.24 c-3.16 0 -4.4 2.16 -4.52 5.2 l8.68 -0.28 c0.4 -2.16 -0.64 -4.92 -4.16 -4.92 z M59.06 40.64 c-1.64 0 -3.84 -1.52 -3.84 -2.68 l0 -11.56 c0 -2.32 -0.68 -3 -3.48 -3 c-0.44 0 -0.44 -1.24 -0.12 -1.36 c3.04 -1.2 4.52 -2.28 6.68 -4.76 c0.52 -0.6 1.6 0 1.44 0.68 c-0.16 0.72 -0.24 1.32 -0.24 1.8 c0 1.44 0.64 1.88 1.6 1.88 c1.48 0 3.32 -0.4 4.76 -0.52 c0.4 -0.04 0.56 0.32 0.56 0.84 c0 1.04 -0.64 2.52 -1.28 2.48 l-1.56 -0.12 c-2.72 -0.2 -4.12 -0.16 -4.12 1.68 l0 9.44 c0 1.52 0.76 2.08 2.16 2.08 c1.24 0 3.44 -0.24 4.52 -0.36 c0.32 -0.04 0.68 1.16 0.28 1.32 c-2.2 0.88 -4.08 1.44 -7.36 2.16 z M99.22999999999999 21.4 c0.52 0 0.52 1.28 0.04 1.44 c-1.16 0.36 -2.36 1.52 -3.52 4.32 l-3.76 9 c-0.8 1.88 -1.16 2.92 -1.4 3.92 l-2.32 0.4 l-5.04 -12.24 l-3.32 7.92 c-0.8 1.88 -1.16 2.92 -1.4 3.92 l-2.32 0.4 l-5.44 -13.32 c-1.24 -3 -2.4 -4 -3.56 -4.32 c-0.48 -0.12 -0.48 -1.44 0.04 -1.44 l7.88 0 c0.56 0 0.56 1.24 0.04 1.44 c-0.84 0.32 -0.92 1.64 0.12 4.32 l2.96 7.6 l3.88 -9.28 c-0.76 -1.72 -1.36 -2.52 -2.64 -2.64 c-0.48 -0.04 -0.52 -1.44 0.04 -1.44 l7.64 0 c0.56 0 0.56 1.2 0.04 1.44 c-0.84 0.4 -0.88 1.64 0.16 4.32 l2.96 7.56 l3.08 -7.56 c1.16 -2.84 1 -4.12 -0.8 -4.32 c-0.44 -0.04 -0.44 -1.44 0.04 -1.44 l6.6 0 z M110.2 40.64 c-5.56 0 -9.72 -4 -9.72 -9.8 c0 -5.64 4 -10.16 9.88 -10.16 c5.56 0 9.72 4 9.72 9.8 c0 5.64 -3.96 10.16 -9.88 10.16 z M111.36000000000001 38.24 c1.96 0 4.36 -1.2 4.36 -5.8 c0 -5.24 -2.84 -9.36 -6.56 -9.36 c-1.92 0 -4.32 1.2 -4.32 5.76 c0 5.28 2.84 9.4 6.52 9.4 z M121.57000000000001 40 c-0.32 0 -0.6 -1.16 -0.28 -1.2 c1.2 -0.16 2.76 -0.76 2.76 -3.52 l0 -9.12 c0 -1.92 -1.04 -2.36 -2.72 -2.56 c-0.32 -0.04 -0.16 -1.08 0.16 -1.16 l6.32 -1.76 c0.48 -0.12 0.68 0.2 0.68 0.56 c0 1.16 0.08 2.56 0.96 2 c1.48 -0.96 3.68 -2.56 5 -2.56 c0.56 0 2 1.16 1.88 1.8 c-0.36 1.92 -0.8 3.32 -1.4 3.32 c-0.2 0 -1.16 -1.04 -3.28 -1.04 c-1.6 0 -3.32 0.48 -3.32 2.56 l0 7.96 c0 2.76 1.12 2.96 4.76 3.52 c0.28 0.04 0.16 1.2 -0.64 1.2 l-10.88 0 z M148.98 38.64 c0.32 0.04 0.08 1.36 -0.24 1.36 l-10.96 0 c-0.32 0 -0.56 -1.32 -0.24 -1.36 c2.04 -0.28 3.32 -1.08 3.32 -3.6 l0 -18.08 c0 -2.52 -1.28 -3.32 -3.32 -3.6 c-0.32 -0.04 -0.08 -1.36 0.24 -1.36 l10.96 0 c0.32 0 0.56 1.32 0.24 1.36 c-1.72 0.24 -3.32 0.8 -3.32 3.6 l0 18.08 c0 2.8 1.6 3.36 3.32 3.6 z M165.98 39 c0.32 0 0.24 1.08 0 1.16 c-2.52 0.84 -6.08 0.56 -8.52 -2.08 l-11.32 -12.24 l9.04 -9.28 c1.92 -1.96 1.8 -2.84 -0.32 -3.2 c-0.48 -0.08 -0.28 -1.36 0.04 -1.36 l9.2 0 c0.32 0 0.56 1.32 0.16 1.36 c-1.76 0.24 -3.84 1.04 -6.36 3.64 l-7.08 7.28 l10.32 11.08 c2.6 2.76 4 3.64 4.84 3.64 z M172.03 16.92 c-0.88 0 -3.04 -1.88 -3.04 -3.04 s2.16 -3.04 3.04 -3.04 s3.04 1.88 3.04 3.04 s-2.16 3.04 -3.04 3.04 z M167.67 40 c-0.32 0 -0.6 -1.16 -0.28 -1.2 c1.24 -0.16 2.8 -0.72 2.8 -3.04 l0 -8.84 c0 -2.44 -0.64 -3.04 -2.72 -3.32 c-0.32 -0.04 -0.2 -1.08 0.08 -1.16 l7.08 -1.68 c0.4 -0.08 0.6 0.2 0.48 0.72 c-0.28 1.28 -0.64 3.64 -0.64 6.24 l0 8.04 c0 2.32 1.56 2.88 2.8 3.04 c0.28 0.04 0.04 1.2 -0.28 1.2 l-9.32 0 z M178.28 40 c-0.32 0 -0.6 -1.16 -0.28 -1.2 c1.2 -0.16 2.76 -0.72 2.76 -3.04 l0 -9.6 c0 -1.92 -1.04 -2.36 -2.72 -2.56 c-0.32 -0.04 -0.16 -1.08 0.16 -1.16 l6.32 -1.76 c0.48 -0.12 0.68 0.2 0.68 0.6 c0 1.12 0.32 1.52 0.96 1.28 c1.96 -0.72 3.84 -1.88 6.24 -1.88 c3.92 0 5.28 3 5.28 5.6 l0 9.48 c0 2.32 1.56 2.88 2.76 3.04 c0.32 0.04 0.04 1.2 -0.24 1.2 l-8.92 0 c-0.28 0 -0.48 -1.16 -0.24 -1.2 c1.52 -0.24 2.36 -0.92 2.36 -3.04 l0 -7.68 c0 -3.36 -1.64 -4.12 -4.2 -4.12 c-1.72 0 -4.16 0.48 -4.16 1.52 l0 10.28 c0 2.12 1.08 2.84 2.56 3.04 c0.28 0.04 0.04 1.2 -0.28 1.2 l-9.04 0 z M220.25000000000003 21.08 c2.32 0 2.52 4.08 -1.64 4.08 l-0.68 0 c0.2 0.68 0.32 1.44 0.32 2.2 c0 3.28 -2.16 6.84 -7.92 6.84 c-2.4 0 -4.2 1.28 -4.2 2.36 c0 0.64 0.6 1.16 1.96 1.16 l7.96 0 c2.72 0 4.64 0.8 4.64 3.36 c0 4.28 -5.4 8.08 -11.68 8.08 c-5.48 0 -6.64 -3 -6.64 -4.88 c0 -0.64 1.84 -2.08 3.24 -3.32 c-1.56 -0.84 -3.36 -2.84 -3.36 -3.6 s0.32 -1.12 1.16 -1.68 l3.24 -2.12 c-2.8 -1.12 -4.08 -3.52 -4.08 -6.04 c0 -3.28 2.16 -6.84 7.92 -6.84 c2.2 0 3.88 0.52 5.12 1.36 c3 1.72 2.24 -0.96 4.64 -0.96 z M211.17000000000002 32.2 c2.12 0 3.08 -1.6 3.08 -3.8 c0 -2.96 -1.84 -5.72 -4.52 -5.72 c-2.08 0 -3.12 1.6 -3.12 3.88 c0 2.92 1.8 5.64 4.56 5.64 z M214.17000000000002 41.36 l-7.36 0 l-0.12 0 c-0.2 0.92 -0.48 1.88 -0.48 2.56 c0 1.56 1.56 3.12 4.84 3.12 c6.36 0 7.04 -5.68 3.12 -5.68 z"/>
    </g>
  </g>
</svg>